<svg width="99" height="117" viewBox="0 0 99 117" fill="none" xmlns="http://www.w3.org/2000/svg">
<path d="M22.6875 54.0312H76.3125C77.4977 54.0312 78.6343 53.5604 79.4724 52.7224C80.3104 51.8843 80.7812 50.7477 80.7812 49.5625V22.75C80.7812 21.5648 80.3104 20.4282 79.4724 19.5901C78.6343 18.7521 77.4977 18.2812 76.3125 18.2812H22.6875C21.5023 18.2812 20.3657 18.7521 19.5276 19.5901C18.6896 20.4282 18.2188 21.5648 18.2188 22.75V49.5625C18.2188 50.7477 18.6896 51.8843 19.5276 52.7224C20.3657 53.5604 21.5023 54.0312 22.6875 54.0312ZM27.1562 27.2188H71.8438V45.0938H27.1562V27.2188ZM89.7188 0.40625H9.28125C6.91088 0.40625 4.63759 1.34788 2.96148 3.02398C1.28538 4.70009 0.34375 6.97338 0.34375 9.34375V107.656C0.34375 110.027 1.28538 112.3 2.96148 113.976C4.63759 115.652 6.91088 116.594 9.28125 116.594H89.7188C92.0891 116.594 94.3624 115.652 96.0385 113.976C97.7146 112.3 98.6562 110.027 98.6562 107.656V9.34375C98.6562 6.97338 97.7146 4.70009 96.0385 3.02398C94.3624 1.34788 92.0891 0.40625 89.7188 0.40625ZM89.7188 107.656H9.28125V9.34375H89.7188V107.656ZM33.8594 69.6719C33.8594 70.9976 33.4662 72.2936 32.7297 73.3959C31.9931 74.4983 30.9463 75.3574 29.7214 75.8648C28.4966 76.3721 27.1488 76.5048 25.8485 76.2462C24.5483 75.9876 23.3539 75.3491 22.4164 74.4117C21.479 73.4743 20.8406 72.2799 20.5819 70.9796C20.3233 69.6793 20.456 68.3315 20.9634 67.1067C21.4707 65.8819 22.3299 64.835 23.4322 64.0984C24.5345 63.3619 25.8305 62.9688 27.1562 62.9688C28.934 62.9688 30.639 63.675 31.8961 64.9321C33.1532 66.1891 33.8594 67.8941 33.8594 69.6719ZM56.2031 69.6719C56.2031 70.9976 55.81 72.2936 55.0734 73.3959C54.3369 74.4983 53.29 75.3574 52.0652 75.8648C50.8403 76.3721 49.4926 76.5048 48.1923 76.2462C46.892 75.9876 45.6976 75.3491 44.7602 74.4117C43.8227 73.4743 43.1843 72.2799 42.9257 70.9796C42.667 69.6793 42.7998 68.3315 43.3071 67.1067C43.8145 65.8819 44.6736 64.835 45.7759 64.0984C46.8783 63.3619 48.1742 62.9688 49.5 62.9688C51.2778 62.9688 52.9827 63.675 54.2398 64.9321C55.4969 66.1891 56.2031 67.8941 56.2031 69.6719ZM78.5469 69.6719C78.5469 70.9976 78.1537 72.2936 77.4172 73.3959C76.6806 74.4983 75.6338 75.3574 74.4089 75.8648C73.1841 76.3721 71.8363 76.5048 70.536 76.2462C69.2358 75.9876 68.0414 75.3491 67.1039 74.4117C66.1665 73.4743 65.5281 72.2799 65.2694 70.9796C65.0108 69.6793 65.1435 68.3315 65.6509 67.1067C66.1582 65.8819 67.0174 64.835 68.1197 64.0984C69.222 63.3619 70.518 62.9688 71.8438 62.9688C73.6215 62.9688 75.3265 63.675 76.5836 64.9321C77.8407 66.1891 78.5469 67.8941 78.5469 69.6719ZM33.8594 92.0156C33.8594 93.3414 33.4662 94.6374 32.7297 95.7397C31.9931 96.842 30.9463 97.7012 29.7214 98.2085C28.4966 98.7158 27.1488 98.8486 25.8485 98.59C24.5483 98.3313 23.3539 97.6929 22.4164 96.7554C21.479 95.818 20.8406 94.6236 20.5819 93.3233C20.3233 92.0231 20.456 90.6753 20.9634 89.4505C21.4707 88.2256 22.3299 87.1787 23.4322 86.4422C24.5345 85.7056 25.8305 85.3125 27.1562 85.3125C28.934 85.3125 30.639 86.0187 31.8961 87.2758C33.1532 88.5329 33.8594 90.2378 33.8594 92.0156ZM56.2031 92.0156C56.2031 93.3414 55.81 94.6374 55.0734 95.7397C54.3369 96.842 53.29 97.7012 52.0652 98.2085C50.8403 98.7158 49.4926 98.8486 48.1923 98.59C46.892 98.3313 45.6976 97.6929 44.7602 96.7554C43.8227 95.818 43.1843 94.6236 42.9257 93.3233C42.667 92.0231 42.7998 90.6753 43.3071 89.4505C43.8145 88.2256 44.6736 87.1787 45.7759 86.4422C46.8783 85.7056 48.1742 85.3125 49.5 85.3125C51.2778 85.3125 52.9827 86.0187 54.2398 87.2758C55.4969 88.5329 56.2031 90.2378 56.2031 92.0156ZM78.5469 92.0156C78.5469 93.3414 78.1537 94.6374 77.4172 95.7397C76.6806 96.842 75.6338 97.7012 74.4089 98.2085C73.1841 98.7158 71.8363 98.8486 70.536 98.59C69.2358 98.3313 68.0414 97.6929 67.1039 96.7554C66.1665 95.818 65.5281 94.6236 65.2694 93.3233C65.0108 92.0231 65.1435 90.6753 65.6509 89.4505C66.1582 88.2256 67.0174 87.1787 68.1197 86.4422C69.222 85.7056 70.518 85.3125 71.8438 85.3125C73.6215 85.3125 75.3265 86.0187 76.5836 87.2758C77.8407 88.5329 78.5469 90.2378 78.5469 92.0156Z" fill="url(#paint0_linear_90_510)"/>
<defs>
<linearGradient id="paint0_linear_90_510" x1="49.5" y1="0.40625" x2="49.5" y2="116.594" gradientUnits="userSpaceOnUse">
<stop stop-color="#00EB2B"/>
<stop offset="1" stop-color="#00A0FB"/>
</linearGradient>
</defs>
</svg>
