<svg width="18" height="19" viewBox="0 0 18 19" fill="none" xmlns="http://www.w3.org/2000/svg">
<path d="M9 2.32031C7.55373 2.32031 6.13993 2.74918 4.9374 3.55269C3.73486 4.3562 2.7976 5.49826 2.24413 6.83444C1.69067 8.17062 1.54586 9.64092 1.82801 11.0594C2.11017 12.4779 2.80661 13.7809 3.82928 14.8035C4.85196 15.8262 6.15492 16.5226 7.57341 16.8048C8.99189 17.087 10.4622 16.9421 11.7984 16.3887C13.1346 15.8352 14.2766 14.898 15.0801 13.6954C15.8836 12.4929 16.3125 11.0791 16.3125 9.63281C16.3105 7.69405 15.5394 5.83527 14.1685 4.46436C12.7975 3.09344 10.9388 2.32236 9 2.32031ZM9 15.8203C7.77623 15.8203 6.57994 15.4574 5.56241 14.7775C4.54488 14.0976 3.75182 13.1313 3.2835 12.0007C2.81518 10.87 2.69265 9.62595 2.93139 8.42569C3.17014 7.22543 3.75944 6.12293 4.62478 5.25759C5.49012 4.39225 6.59262 3.80295 7.79288 3.5642C8.99314 3.32546 10.2372 3.44799 11.3679 3.91631C12.4985 4.38463 13.4648 5.17769 14.1447 6.19522C14.8246 7.21275 15.1875 8.40904 15.1875 9.63281C15.1856 11.2733 14.5331 12.846 13.3732 14.006C12.2132 15.166 10.6405 15.8185 9 15.8203ZM10.523 7.21828L8.10774 9.63281L10.523 12.0473C10.5752 12.0996 10.6167 12.1616 10.645 12.2299C10.6733 12.2982 10.6878 12.3714 10.6878 12.4453C10.6878 12.5192 10.6733 12.5924 10.645 12.6607C10.6167 12.729 10.5752 12.791 10.523 12.8433C10.4707 12.8955 10.4087 12.937 10.3404 12.9653C10.2721 12.9936 10.1989 13.0081 10.125 13.0081C10.0511 13.0081 9.97791 12.9936 9.90962 12.9653C9.84134 12.937 9.7793 12.8955 9.72703 12.8433L6.91453 10.0308C6.86224 9.97854 6.82075 9.9165 6.79244 9.84822C6.76413 9.77993 6.74956 9.70673 6.74956 9.63281C6.74956 9.55889 6.76413 9.48569 6.79244 9.41741C6.82075 9.34912 6.86224 9.28708 6.91453 9.23484L9.72703 6.42234C9.7793 6.37008 9.84134 6.32863 9.90962 6.30034C9.97791 6.27206 10.0511 6.2575 10.125 6.2575C10.1989 6.2575 10.2721 6.27206 10.3404 6.30034C10.4087 6.32863 10.4707 6.37008 10.523 6.42234C10.5752 6.47461 10.6167 6.53665 10.645 6.60493C10.6733 6.67322 10.6878 6.7464 10.6878 6.82031C10.6878 6.89422 10.6733 6.96741 10.645 7.03569C10.6167 7.10398 10.5752 7.16602 10.523 7.21828Z" fill="#A6A6A6"/>
</svg>
