<svg width="33" height="33" viewBox="0 0 33 33" fill="none" xmlns="http://www.w3.org/2000/svg">
<path d="M27.5342 13.1974L17.5342 23.1974C17.4414 23.2904 17.3311 23.3641 17.2097 23.4144C17.0883 23.4648 16.9581 23.4907 16.8267 23.4907C16.6953 23.4907 16.5652 23.4648 16.4438 23.4144C16.3224 23.3641 16.2121 23.2904 16.1192 23.1974L6.11923 13.1974C5.93159 13.0097 5.82617 12.7552 5.82617 12.4899C5.82617 12.2245 5.93159 11.97 6.11923 11.7824C6.30687 11.5947 6.56136 11.4893 6.82673 11.4893C7.09209 11.4893 7.34659 11.5947 7.53423 11.7824L16.8267 21.0761L26.1192 11.7824C26.2121 11.6895 26.3224 11.6158 26.4438 11.5655C26.5652 11.5152 26.6953 11.4893 26.8267 11.4893C26.9581 11.4893 27.0882 11.5152 27.2096 11.5655C27.331 11.6158 27.4413 11.6895 27.5342 11.7824C27.6271 11.8753 27.7008 11.9856 27.7511 12.107C27.8014 12.2284 27.8273 12.3585 27.8273 12.4899C27.8273 12.6213 27.8014 12.7514 27.7511 12.8728C27.7008 12.9942 27.6271 13.1045 27.5342 13.1974Z" fill="#343330"/>
</svg>
