<svg width="143" height="91" viewBox="0 0 143 91" fill="none" xmlns="http://www.w3.org/2000/svg">
<path d="M138.531 41.0312H134.062V23.1562C134.062 20.7859 133.121 18.5126 131.445 16.8365C129.769 15.1604 127.495 14.2188 125.125 14.2188H116.188V9.75C116.188 7.37963 115.246 5.10634 113.57 3.43023C111.894 1.75413 109.62 0.8125 107.25 0.8125H93.8438C91.4734 0.8125 89.2001 1.75413 87.524 3.43023C85.8479 5.10634 84.9062 7.37963 84.9062 9.75V41.0312H58.0938V9.75C58.0938 7.37963 57.1521 5.10634 55.476 3.43023C53.7999 1.75413 51.5266 0.8125 49.1562 0.8125H35.75C33.3796 0.8125 31.1063 1.75413 29.4302 3.43023C27.7541 5.10634 26.8125 7.37963 26.8125 9.75V14.2188H17.875C15.5046 14.2188 13.2313 15.1604 11.5552 16.8365C9.87913 18.5126 8.9375 20.7859 8.9375 23.1562V41.0312H4.46875C3.28356 41.0312 2.14692 41.5021 1.30887 42.3401C0.470813 43.1782 0 44.3148 0 45.5C0 46.6852 0.470813 47.8218 1.30887 48.6599C2.14692 49.4979 3.28356 49.9688 4.46875 49.9688H8.9375V67.8438C8.9375 70.2141 9.87913 72.4874 11.5552 74.1635C13.2313 75.8396 15.5046 76.7812 17.875 76.7812H26.8125V81.25C26.8125 83.6204 27.7541 85.8937 29.4302 87.5698C31.1063 89.2459 33.3796 90.1875 35.75 90.1875H49.1562C51.5266 90.1875 53.7999 89.2459 55.476 87.5698C57.1521 85.8937 58.0938 83.6204 58.0938 81.25V49.9688H84.9062V81.25C84.9062 83.6204 85.8479 85.8937 87.524 87.5698C89.2001 89.2459 91.4734 90.1875 93.8438 90.1875H107.25C109.62 90.1875 111.894 89.2459 113.57 87.5698C115.246 85.8937 116.188 83.6204 116.188 81.25V76.7812H125.125C127.495 76.7812 129.769 75.8396 131.445 74.1635C133.121 72.4874 134.062 70.2141 134.062 67.8438V49.9688H138.531C139.716 49.9688 140.853 49.4979 141.691 48.6599C142.529 47.8218 143 46.6852 143 45.5C143 44.3148 142.529 43.1782 141.691 42.3401C140.853 41.5021 139.716 41.0312 138.531 41.0312ZM17.875 67.8438V23.1562H26.8125V67.8438H17.875ZM49.1562 81.25H35.75V9.75H49.1562V81.25ZM107.25 81.25H93.8438V9.75H107.25V72.212C107.25 72.2455 107.25 72.279 107.25 72.3125C107.25 72.346 107.25 72.3795 107.25 72.413V81.25ZM125.125 67.8438H116.188V23.1562H125.125V67.8438Z" fill="url(#paint0_linear_90_390)"/>
<defs>
<linearGradient id="paint0_linear_90_390" x1="71.5" y1="0.8125" x2="71.5" y2="90.1875" gradientUnits="userSpaceOnUse">
<stop stop-color="#00EB2B"/>
<stop offset="1" stop-color="#00A0FB"/>
</linearGradient>
</defs>
</svg>
