<svg width="26" height="26" viewBox="0 0 26 26" fill="none" xmlns="http://www.w3.org/2000/svg">
<path d="M14.875 25.5329C20.8887 24.6279 25.5 19.4391 25.5 13.1729C25.5 6.2691 19.9037 0.672852 13 0.672852C6.09625 0.672852 0.5 6.2691 0.5 13.1729C0.5 19.4391 5.11125 24.6291 11.125 25.5329V16.9229H9.25C8.75272 16.9229 8.2758 16.7253 7.92417 16.3737C7.57254 16.022 7.375 15.5451 7.375 15.0479C7.375 14.5506 7.57254 14.0737 7.92417 13.722C8.2758 13.3704 8.75272 13.1729 9.25 13.1729H11.125V10.6729C11.125 9.51253 11.5859 8.39973 12.4064 7.57926C13.2269 6.75879 14.3397 6.29785 15.5 6.29785H16.125C16.6223 6.29785 17.0992 6.4954 17.4508 6.84703C17.8025 7.19866 18 7.67557 18 8.17285C18 8.67013 17.8025 9.14705 17.4508 9.49868C17.0992 9.85031 16.6223 10.0479 16.125 10.0479H15.5C15.3342 10.0479 15.1753 10.1137 15.0581 10.2309C14.9408 10.3481 14.875 10.5071 14.875 10.6729V13.1729H16.75C17.2473 13.1729 17.7242 13.3704 18.0758 13.722C18.4275 14.0737 18.625 14.5506 18.625 15.0479C18.625 15.5451 18.4275 16.022 18.0758 16.3737C17.7242 16.7253 17.2473 16.9229 16.75 16.9229H14.875V25.5329Z" fill="white"/>
</svg>
