<svg width="30" height="31" viewBox="0 0 30 31" fill="none" xmlns="http://www.w3.org/2000/svg">
<path d="M15 20.1729C16.3261 20.1729 17.5979 19.6461 18.5355 18.7084C19.4732 17.7707 20 16.4989 20 15.1729C20 13.8468 19.4732 12.575 18.5355 11.6373C17.5979 10.6996 16.3261 10.1729 15 10.1729C13.6739 10.1729 12.4021 10.6996 11.4645 11.6373C10.5268 12.575 10 13.8468 10 15.1729C10 16.4989 10.5268 17.7707 11.4645 18.7084C12.4021 19.6461 13.6739 20.1729 15 20.1729Z" stroke="white" stroke-width="1.5" stroke-linecap="round" stroke-linejoin="round"/>
<path d="M3.75 20.1729V10.1729C3.75 8.51525 4.40848 6.92554 5.58058 5.75343C6.75268 4.58133 8.3424 3.92285 10 3.92285H20C21.6576 3.92285 23.2473 4.58133 24.4194 5.75343C25.5915 6.92554 26.25 8.51525 26.25 10.1729V20.1729C26.25 21.8305 25.5915 23.4202 24.4194 24.5923C23.2473 25.7644 21.6576 26.4229 20 26.4229H10C8.3424 26.4229 6.75268 25.7644 5.58058 24.5923C4.40848 23.4202 3.75 21.8305 3.75 20.1729Z" stroke="white" stroke-width="1.5"/>
<path d="M21.875 8.30946L21.8867 8.29663" stroke="black" stroke-width="1.5" stroke-linecap="round" stroke-linejoin="round"/>
</svg>
