<svg width="172" height="73" viewBox="0 0 172 73" fill="none" xmlns="http://www.w3.org/2000/svg">
<g clip-path="url(#clip0_1_227)">
<path d="M42.9469 28.98C42.1012 29.4099 41.2354 29.802 40.3514 30.1492C34.7248 32.3653 29.1346 34.5058 24.155 38.0656C20.4677 40.7027 17.3071 43.8487 15.0288 47.8042C11.1264 54.5785 11.8135 61.8707 17.0155 67.107C20.3109 70.4239 24.5213 71.9583 29.0744 72.6382C45.464 75.0882 63.4376 64.8153 70.6208 49.5886C75.2596 39.7547 73.6592 28.0302 68.5138 18.628C70.6226 16.7267 72.2266 15.2355 74.3118 13.309C74.4594 13.1741 75.0299 12.6003 75.2541 12.3736C73.8725 13.0895 72.5547 13.7749 71.2314 14.4584C69.9118 15.1437 68.5903 15.8291 67.2707 16.5144C63.742 10.9022 58.9228 6.30992 53.4529 3.76285C38.5597 -3.17146 20.783 -0.35457 9.99449 10.8339C-3.97461 25.3213 -1.10751 44.4783 5.36668 55.611C5.45053 55.7549 5.52708 55.9006 5.62915 56.0265C5.89708 56.3557 6.4366 56.1056 6.36005 55.6919C5.64373 51.7598 5.3922 47.8996 6.22699 44.025C8.35225 34.1497 14.2213 26.6829 22.5692 21.4197C34.7958 13.7119 48.0796 12.1919 61.8263 17.153C62.6502 17.4498 63.3866 17.7969 64.0537 18.1819C62.4369 19.0219 60.8202 19.8602 59.2035 20.6984C58.6439 20.9898 58.0807 21.2776 57.523 21.5672C57.3936 21.6266 57.2605 21.6841 57.1347 21.7507L42.9469 28.9782V28.98ZM67.9415 29.2786C67.2561 31.8778 66.1261 34.2828 64.5276 36.4449C56.5314 47.27 45.8541 54.4705 33.1427 58.8614C30.2045 59.8759 27.1533 60.4767 24.0164 60.3777C18.1711 60.1907 15.7451 56.6057 17.9031 51.2273C19.8935 46.2699 23.4387 42.4709 27.6199 39.2205C28.4456 38.5783 29.2877 37.9703 30.148 37.3893C35.3973 33.8403 42.041 32.9427 48.1015 34.8584L48.189 34.8854C41.4687 40.4041 34.7703 45.7662 27.9207 51.1608C40.53 45.9695 52.7894 40.3411 65.2603 34.9681C64.0992 34.6066 63.0293 34.272 61.9649 33.9392C59.9891 33.324 58.0151 32.7215 56.0484 32.0865C55.3886 31.8706 54.7033 31.7465 54.0744 31.4299C55.5144 30.1636 56.9616 28.9062 58.3979 27.6363C59.9143 26.2908 61.4217 24.9273 62.9291 23.571C62.9837 23.5369 63.0402 23.5099 63.084 23.4703C64.2742 22.4216 65.4517 21.3603 66.6328 20.3027C68.501 22.5637 68.9093 25.5983 67.9378 29.2786H67.9415Z" fill="url(#paint0_linear_1_227)"/>
<path d="M89.0227 38.5693C87.6083 38.5693 86.3051 38.3247 85.1112 37.8354C83.9174 37.3462 82.8748 36.6626 81.9835 35.783C81.0922 34.9034 80.4087 33.8619 79.9312 32.6567C79.4536 31.4516 79.2148 30.142 79.2148 28.7282C79.2148 27.3144 79.4536 25.9868 79.9312 24.7997C80.4087 23.6125 81.0922 22.5746 81.9835 21.686C82.8748 20.7974 83.9156 20.1084 85.1112 19.6192C86.3051 19.1299 87.6083 18.8853 89.0227 18.8853C90.4371 18.8853 91.7641 19.1299 92.9488 19.6192C94.1336 20.1084 95.1707 20.7974 96.062 21.686C96.9533 22.5746 97.6368 23.6161 98.1143 24.8122C98.5919 26.0084 98.8306 27.3144 98.8306 28.7282C98.8306 30.142 98.5919 31.4462 98.1143 32.6441C97.6368 33.8403 96.9533 34.8836 96.062 35.7704C95.1707 36.659 94.1336 37.348 92.9488 37.8372C91.7641 38.3265 90.4554 38.5711 89.0227 38.5711V38.5693ZM89.0227 34.7091C89.8302 34.7091 90.5793 34.5634 91.2683 34.2738C91.9573 33.9842 92.5496 33.5669 93.0454 33.0237C93.5412 32.4805 93.9312 31.8455 94.2156 31.1206C94.4999 30.3957 94.6421 29.5988 94.6421 28.7282C94.6421 27.8576 94.4999 27.0607 94.2156 26.3358C93.9312 25.6109 93.5412 24.9813 93.0454 24.4471C92.5496 23.9129 91.9573 23.4955 91.2683 23.1969C90.5793 22.8983 89.8302 22.749 89.0227 22.749C88.2153 22.749 87.4698 22.8983 86.7918 23.1969C86.1119 23.4955 85.5159 23.9129 85.0019 24.4471C84.4879 24.9813 84.0978 25.6127 83.8317 26.3358C83.5656 27.0607 83.4325 27.8576 83.4325 28.7282C83.4325 29.5988 83.5656 30.3957 83.8317 31.1206C84.0978 31.8455 84.4879 32.4805 85.0019 33.0237C85.5159 33.5669 86.1137 33.9842 86.7918 34.2738C87.4716 34.5634 88.2153 34.7091 89.0227 34.7091Z" fill="white"/>
<path d="M101.199 38.2977V19.2666H104.89L115.551 33.486H114.78C114.707 32.9248 114.642 32.3761 114.587 31.8419C114.532 31.3077 114.481 30.7644 114.436 30.2104C114.39 29.6582 114.354 29.0862 114.326 28.498C114.299 27.9098 114.275 27.2838 114.257 26.6218C114.239 25.9599 114.23 25.2404 114.23 24.4597V19.2666H118.28V38.2977H114.532L103.651 23.9416L104.697 23.9686C104.788 24.9112 104.866 25.7134 104.932 26.3754C104.996 27.0373 105.047 27.613 105.083 28.1022C105.12 28.5915 105.153 29.0178 105.18 29.3794C105.207 29.7427 105.226 30.0863 105.235 30.4119C105.244 30.7374 105.249 31.0828 105.249 31.4444V38.2959H101.199V38.2977Z" fill="white"/>
<path d="M119.629 38.2977L127.178 19.2666H130.869L138.39 38.2977H134.147L130.262 28.0483C130.153 27.7587 130.018 27.3863 129.863 26.933C129.707 26.4797 129.546 25.9994 129.382 25.4922C129.216 24.9849 129.061 24.4993 128.914 24.037C128.766 23.5747 128.657 23.1897 128.584 22.8822L129.327 22.8552C129.218 23.2725 129.094 23.7024 128.956 24.1467C128.817 24.591 128.675 25.0443 128.529 25.5066C128.381 25.9689 128.227 26.4168 128.061 26.8521C127.895 27.2874 127.74 27.7137 127.592 28.1292L123.708 38.2977H119.631H119.629ZM123.128 34.3008L124.479 31.0109H133.323L134.701 34.3008H123.13H123.128Z" fill="white"/>
<path d="M139.713 38.2976V19.2664H143.845V38.2976H139.713ZM142.826 32.6692L141.944 28.9709L151.697 19.2646H156.711L142.826 32.6692ZM152.22 38.2976L145.002 28.836L147.84 26.4166L157.125 38.2976H152.222H152.22Z" fill="white"/>
<path d="M164.618 38.5693C163.424 38.5693 162.336 38.4236 161.353 38.134C160.371 37.8444 159.498 37.4181 158.736 36.8569C157.974 36.2957 157.289 35.6157 156.684 34.8171L159.274 31.9084C160.174 33.1406 161.069 33.9788 161.96 34.4231C162.852 34.8674 163.819 35.0887 164.867 35.0887C165.436 35.0887 165.947 35.0113 166.397 34.8584C166.847 34.7037 167.201 34.4825 167.458 34.1929C167.715 33.9033 167.844 33.5579 167.844 33.1604C167.844 32.8708 167.78 32.6028 167.651 32.3581C167.521 32.1135 167.339 31.8958 167.1 31.7052C166.862 31.5145 166.577 31.3436 166.245 31.1889C165.916 31.036 165.547 30.8993 165.143 30.7806C164.738 30.6637 164.297 30.5683 163.821 30.4946C162.793 30.259 161.893 29.973 161.122 29.6384C160.351 29.3038 159.707 28.8865 159.193 28.3882C158.679 27.89 158.298 27.3233 158.051 26.6884C157.803 26.0534 157.679 25.3375 157.679 24.5406C157.679 23.7438 157.863 22.9685 158.229 22.2706C158.596 21.5726 159.106 20.97 159.758 20.4628C160.411 19.9555 161.164 19.5652 162.017 19.2936C162.872 19.022 163.776 18.8853 164.731 18.8853C165.906 18.8853 166.934 19.0166 167.817 19.2792C168.699 19.5418 169.464 19.9178 170.117 20.407C170.769 20.8963 171.316 21.4953 171.755 22.2022L169.138 24.7043C168.752 24.1971 168.334 23.7707 167.884 23.4272C167.434 23.0836 166.947 22.8246 166.424 22.6519C165.901 22.4792 165.363 22.3929 164.813 22.3929C164.206 22.3929 163.683 22.4702 163.242 22.6249C162.801 22.7796 162.456 23.0009 162.208 23.2905C161.96 23.5801 161.836 23.9344 161.836 24.35C161.836 24.6755 161.918 24.9669 162.084 25.2206C162.25 25.4742 162.489 25.6954 162.801 25.8861C163.112 26.0768 163.49 26.2441 163.931 26.3898C164.372 26.5355 164.858 26.6614 165.391 26.7711C166.4 26.9708 167.31 27.2334 168.117 27.559C168.925 27.8846 169.619 28.2785 170.197 28.7408C170.775 29.2031 171.221 29.7463 171.533 30.3723C171.845 30.9983 172.001 31.6998 172.001 32.4787C172.001 33.7666 171.69 34.862 171.065 35.7686C170.439 36.6752 169.577 37.3677 168.475 37.848C167.372 38.3283 166.087 38.5693 164.618 38.5693Z" fill="white"/>
<path d="M81.373 54.7804V46.1211H82.35V54.7804H81.373ZM81.8615 47.0619V46.1211H86.8885V47.0619H81.8615ZM81.8615 50.9202V49.9687H86.298V50.9202H81.8615Z" fill="white"/>
<path d="M90.8965 54.7804V53.8649H92.3127V47.0367H90.8965V46.1211H94.7059V47.0367H93.2897V53.8649H94.7059V54.7804H90.8965Z" fill="white"/>
<path d="M100.975 54.7804V47.0619H98.4688V46.1211H104.56V47.0619H101.954V54.7804H100.977H100.975Z" fill="white"/>
<path d="M108.721 54.7804V46.1211H109.61L115.35 53.6166L115.175 53.8397C115.149 53.7084 115.131 53.5105 115.118 53.2461C115.105 52.9817 115.093 52.6831 115.08 52.3485C115.067 52.0139 115.056 51.6667 115.049 51.3034C115.04 50.94 115.034 50.5857 115.031 50.2403C115.027 49.8931 115.025 49.5802 115.025 49.2995V46.1211H116.002V54.7804H115.087L109.371 47.3838L109.523 47.1248C109.548 47.454 109.57 47.7796 109.592 48.1016C109.612 48.4235 109.63 48.7329 109.641 49.0297C109.654 49.3265 109.665 49.5981 109.672 49.8464C109.681 50.0946 109.687 50.3033 109.69 50.4777C109.694 50.6504 109.696 50.7745 109.696 50.8483V54.7822H108.719L108.721 54.7804Z" fill="white"/>
<path d="M121.092 54.7804V46.1211H126.407V47.0619H122.071V53.8397H126.383V54.7804H121.094H121.092ZM121.544 50.7979V49.8572H125.705V50.7979H121.544Z" fill="white"/>
<path d="M133.662 54.9043C133.219 54.9043 132.802 54.8432 132.408 54.719C132.014 54.5949 131.655 54.4096 131.331 54.1632C131.004 53.915 130.717 53.611 130.467 53.2476L131.143 52.5047C131.535 53.057 131.94 53.4455 132.353 53.6667C132.767 53.8898 133.232 54.0013 133.751 54.0013C134.127 54.0013 134.469 53.9402 134.779 53.816C135.089 53.6919 135.332 53.5192 135.507 53.2962C135.682 53.0732 135.769 52.8177 135.769 52.5299C135.769 52.341 135.738 52.172 135.674 52.0227C135.61 51.8734 135.517 51.7421 135.392 51.6269C135.266 51.5118 135.111 51.4093 134.929 51.3175C134.745 51.2276 134.533 51.1449 134.296 51.0693C134.057 50.9956 133.793 50.92 133.5 50.8463C133.073 50.7473 132.7 50.6304 132.379 50.4937C132.056 50.357 131.785 50.1915 131.564 49.9918C131.344 49.794 131.176 49.5655 131.063 49.3047C130.95 49.0457 130.893 48.7381 130.893 48.3837C130.893 48.0294 130.966 47.7326 131.112 47.443C131.258 47.1552 131.46 46.9051 131.719 46.6947C131.978 46.4842 132.282 46.3223 132.634 46.2054C132.986 46.0903 133.361 46.0327 133.762 46.0327C134.214 46.0327 134.617 46.0921 134.972 46.2126C135.328 46.3331 135.643 46.5076 135.918 46.7378C136.194 46.9681 136.432 47.2451 136.633 47.5671L135.944 48.2344C135.769 47.9628 135.57 47.7272 135.348 47.5293C135.127 47.3314 134.885 47.1803 134.621 47.0778C134.358 46.9753 134.067 46.9231 133.749 46.9231C133.381 46.9231 133.059 46.9843 132.778 47.1084C132.497 47.2325 132.279 47.4034 132.12 47.621C131.961 47.8387 131.881 48.0887 131.881 48.3693C131.881 48.5762 131.919 48.7597 131.994 48.9198C132.069 49.0799 132.189 49.2202 132.351 49.3407C132.514 49.4612 132.727 49.5673 132.991 49.6627C133.254 49.758 133.569 49.8461 133.937 49.9289C134.371 50.0278 134.763 50.1483 135.109 50.2868C135.456 50.4271 135.753 50.5944 135.999 50.7887C136.245 50.983 136.432 51.2078 136.562 51.4632C136.691 51.7187 136.757 52.0119 136.757 52.341C136.757 52.8519 136.627 53.2998 136.369 53.6829C136.11 54.0661 135.749 54.3647 135.284 54.5805C134.821 54.7946 134.28 54.9025 133.66 54.9025L133.662 54.9043Z" fill="white"/>
<path d="M143.789 54.9043C143.346 54.9043 142.929 54.8432 142.535 54.719C142.141 54.5949 141.782 54.4096 141.458 54.1632C141.131 53.915 140.843 53.611 140.594 53.2476L141.27 52.5047C141.662 53.057 142.066 53.4455 142.48 53.6667C142.894 53.8898 143.359 54.0013 143.878 54.0013C144.254 54.0013 144.596 53.9402 144.906 53.816C145.216 53.6919 145.459 53.5192 145.633 53.2962C145.808 53.0732 145.896 52.8177 145.896 52.5299C145.896 52.341 145.865 52.172 145.801 52.0227C145.737 51.8734 145.644 51.7421 145.519 51.6269C145.393 51.5118 145.238 51.4093 145.056 51.3175C144.872 51.2276 144.66 51.1449 144.423 51.0693C144.184 50.9956 143.92 50.92 143.627 50.8463C143.2 50.7473 142.827 50.6304 142.506 50.4937C142.183 50.357 141.912 50.1915 141.691 49.9918C141.47 49.794 141.303 49.5655 141.19 49.3047C141.077 49.0457 141.02 48.7381 141.02 48.3837C141.02 48.0294 141.093 47.7326 141.239 47.443C141.385 47.1552 141.587 46.9051 141.846 46.6947C142.105 46.4842 142.409 46.3223 142.761 46.2054C143.113 46.0903 143.488 46.0327 143.889 46.0327C144.341 46.0327 144.744 46.0921 145.099 46.2126C145.455 46.3331 145.77 46.5076 146.045 46.7378C146.321 46.9681 146.559 47.2451 146.76 47.5671L146.071 48.2344C145.896 47.9628 145.697 47.7272 145.475 47.5293C145.254 47.3314 145.012 47.1803 144.748 47.0778C144.485 46.9753 144.194 46.9231 143.876 46.9231C143.508 46.9231 143.186 46.9843 142.905 47.1084C142.624 47.2325 142.406 47.4034 142.247 47.621C142.088 47.8387 142.008 48.0887 142.008 48.3693C142.008 48.5762 142.046 48.7597 142.121 48.9198C142.196 49.0799 142.316 49.2202 142.478 49.3407C142.641 49.4612 142.854 49.5673 143.118 49.6627C143.381 49.758 143.696 49.8461 144.064 49.9289C144.498 50.0278 144.89 50.1483 145.236 50.2868C145.582 50.4271 145.88 50.5944 146.126 50.7887C146.372 50.983 146.559 51.2078 146.689 51.4632C146.818 51.7187 146.884 52.0119 146.884 52.341C146.884 52.8519 146.754 53.2998 146.496 53.6829C146.237 54.0661 145.876 54.3647 145.411 54.5805C144.948 54.7946 144.407 54.9025 143.787 54.9025L143.789 54.9043Z" fill="white"/>
</g>
<defs>
<linearGradient id="paint0_linear_1_227" x1="0.000681474" y1="36.4989" x2="75.2523" y2="36.4989" gradientUnits="userSpaceOnUse">
<stop stop-color="#00B4FB"/>
<stop offset="1" stop-color="#00EB2B"/>
</linearGradient>
<clipPath id="clip0_1_227">
<rect width="172" height="73" fill="white"/>
</clipPath>
</defs>
</svg>
