<svg width="28" height="29" viewBox="0 0 28 29" fill="none" xmlns="http://www.w3.org/2000/svg">
<path d="M14 2.94141C11.7502 2.94141 9.551 3.60854 7.68039 4.85844C5.80978 6.10834 4.35182 7.88487 3.49088 9.96338C2.62993 12.0419 2.40467 14.329 2.84357 16.5356C3.28248 18.7421 4.36584 20.7689 5.95667 22.3597C7.54749 23.9506 9.57432 25.0339 11.7809 25.4728C13.9874 25.9117 16.2745 25.6865 18.353 24.8255C20.4315 23.9646 22.2081 22.5066 23.458 20.636C24.7079 18.7654 25.375 16.5662 25.375 14.3164C25.3718 11.3005 24.1724 8.40912 22.0398 6.27658C19.9073 4.14405 17.0159 2.94459 14 2.94141ZM14 23.9414C12.0964 23.9414 10.2355 23.3769 8.65264 22.3193C7.06982 21.2617 5.83616 19.7585 5.10766 17.9997C4.37917 16.241 4.18856 14.3057 4.55995 12.4387C4.93133 10.5716 5.84802 8.85658 7.1941 7.5105C8.54018 6.16442 10.2552 5.24773 12.1223 4.87635C13.9893 4.50497 15.9246 4.69557 17.6833 5.42407C19.4421 6.15256 20.9453 7.38622 22.0029 8.96904C23.0605 10.5519 23.625 12.4128 23.625 14.3164C23.6221 16.8682 22.6071 19.3147 20.8027 21.1191C18.9983 22.9235 16.5518 23.9385 14 23.9414ZM18.9941 13.6973C19.0754 13.7786 19.14 13.8751 19.184 13.9813C19.228 14.0876 19.2507 14.2014 19.2507 14.3164C19.2507 14.4314 19.228 14.5453 19.184 14.6515C19.14 14.7577 19.0754 14.8542 18.9941 14.9355L15.4941 18.4355C15.3299 18.5997 15.1072 18.6919 14.875 18.6919C14.6428 18.6919 14.4201 18.5997 14.2559 18.4355C14.0918 18.2713 13.9995 18.0486 13.9995 17.8164C13.9995 17.5842 14.0918 17.3615 14.2559 17.1973L16.263 15.1914H9.625C9.39294 15.1914 9.17038 15.0992 9.00629 14.9351C8.84219 14.771 8.75 14.5485 8.75 14.3164C8.75 14.0843 8.84219 13.8618 9.00629 13.6977C9.17038 13.5336 9.39294 13.4414 9.625 13.4414H16.263L14.2559 11.4355C14.0918 11.2713 13.9995 11.0486 13.9995 10.8164C13.9995 10.5842 14.0918 10.3615 14.2559 10.1973C14.4201 10.0332 14.6428 9.94092 14.875 9.94092C15.1072 9.94092 15.3299 10.0332 15.4941 10.1973L18.9941 13.6973Z" fill="white"/>
</svg>
