<svg width="58" height="58" viewBox="0 0 58 58" fill="none" xmlns="http://www.w3.org/2000/svg">
<path d="M29 0.5625C23.3756 0.5625 17.8775 2.23033 13.201 5.35508C8.52446 8.47984 4.87956 12.9212 2.72719 18.1174C0.574822 23.3137 0.0116642 29.0315 1.10893 34.5479C2.2062 40.0642 4.91461 45.1313 8.89166 49.1083C12.8687 53.0854 17.9358 55.7938 23.4521 56.8911C28.9685 57.9883 34.6863 57.4252 39.8826 55.2728C45.0788 53.1205 49.5202 49.4755 52.6449 44.799C55.7697 40.1225 57.4375 34.6244 57.4375 29C57.4296 21.4604 54.4309 14.2318 49.0996 8.90044C43.7682 3.5691 36.5397 0.570462 29 0.5625ZM29 53.0625C24.2409 53.0625 19.5887 51.6513 15.6316 49.0072C11.6745 46.3632 8.59039 42.6052 6.76916 38.2083C4.94793 33.8115 4.47141 28.9733 5.39987 24.3056C6.32832 19.638 8.62006 15.3504 11.9853 11.9852C15.3505 8.62004 19.638 6.32831 24.3057 5.39985C28.9733 4.4714 33.8115 4.94792 38.2083 6.76915C42.6052 8.59038 46.3632 11.6745 49.0073 15.6316C51.6513 19.5886 53.0625 24.2409 53.0625 29C53.0553 35.3796 50.5178 41.4957 46.0068 46.0068C41.4958 50.5178 35.3796 53.0553 29 53.0625ZM38.9641 27.1789L25.8391 18.4289C25.5096 18.2091 25.1265 18.0828 24.7309 18.0636C24.3352 18.0445 23.9418 18.1331 23.5925 18.3201C23.2433 18.507 22.9514 18.7853 22.748 19.1252C22.5446 19.4651 22.4373 19.8539 22.4375 20.25V37.75C22.4373 38.1461 22.5446 38.5349 22.748 38.8748C22.9514 39.2147 23.2433 39.493 23.5925 39.6799C23.9418 39.8669 24.3352 39.9555 24.7309 39.9364C25.1265 39.9172 25.5096 39.7909 25.8391 39.5711L38.9641 30.8211C39.2641 30.6214 39.5102 30.3507 39.6804 30.033C39.8506 29.7153 39.9396 29.3604 39.9396 29C39.9396 28.6396 39.8506 28.2847 39.6804 27.967C39.5102 27.6493 39.2641 27.3786 38.9641 27.1789ZM26.8125 33.6621V24.3516L33.807 29L26.8125 33.6621Z" fill="white"/>
</svg>
